<svg width="2000px" height="1124px"
 viewBox="0.00 0.00 947.97 533.32" xmlns="http://www.w3.org/2000/svg" xmlns:xlink="http://www.w3.org/1999/xlink">
<g id="graph0" class="graph" transform="scale(1.0 1.0) rotate(0) translate(4 529.32)">
<title>ContextMapGraph</title>
<polygon fill="white" stroke="transparent" points="-4,4 -4,-529.32 943.97,-529.32 943.97,4 -4,4"/>
<!-- CatalogProductosContext -->
<g id="node1" class="node">
<title>CatalogProductosContext</title>
<polygon fill="none" stroke="black" stroke-width="2" points="309.47,-444.87 318.29,-446.71 326.74,-448.63 334.79,-450.62 342.39,-452.68 349.53,-454.8 356.16,-456.97 362.26,-459.18 367.8,-461.43 372.77,-463.7 377.14,-465.99 380.89,-468.3 384.01,-470.61 386.49,-472.93 388.32,-475.23 389.49,-477.52 390.01,-479.8 389.87,-482.04 389.08,-484.26 387.65,-486.44 385.58,-488.58 382.9,-490.67 379.61,-492.71 375.73,-494.7 371.3,-496.64 366.32,-498.51 360.83,-500.32 354.85,-502.06 348.41,-503.74 341.55,-505.34 334.29,-506.87 326.67,-508.33 318.72,-509.71 310.47,-511.01 301.97,-512.23 293.24,-513.37 284.32,-514.42 275.25,-515.4 266.05,-516.29 256.76,-517.09 247.42,-517.81 238.05,-518.43 228.68,-518.97 219.34,-519.42 210.06,-519.78 200.87,-520.05 191.78,-520.22 182.82,-520.3 174.01,-520.28 165.38,-520.17 156.92,-519.97 148.67,-519.66 140.64,-519.26 132.83,-518.76 125.26,-518.16 117.94,-517.46 110.88,-516.66 104.08,-515.76 97.55,-514.76 91.29,-513.66 85.31,-512.47 79.61,-511.18 74.19,-509.79 69.06,-508.31 64.22,-506.73 59.67,-505.06 55.41,-503.31 51.45,-501.48 47.78,-499.56 44.41,-497.56 41.34,-495.5 38.57,-493.36 36.12,-491.17 33.97,-488.91 32.14,-486.61 30.63,-484.26 29.45,-481.87 28.6,-479.45 28.1,-477 27.93,-474.55 28.12,-472.08 28.67,-469.61 29.59,-467.15 30.88,-464.71 32.55,-462.29 34.62,-459.91 37.07,-457.56 39.93,-455.27 43.19,-453.04 46.86,-450.88 50.95,-448.79 55.45,-446.79 60.36,-444.88 65.69,-443.07 71.43,-441.36 77.57,-439.77 84.12,-438.3 91.06,-436.95 98.38,-435.73 106.07,-434.65 114.12,-433.7 122.5,-432.9 131.21,-432.25 140.21,-431.74 149.49,-431.38 159.02,-431.17 168.77,-431.12 178.72,-431.21 188.82,-431.45 199.05,-431.84 209.38,-432.38 219.77,-433.06 230.18,-433.88 240.56,-434.83 250.9,-435.92 261.13,-437.13 271.23,-438.46 281.16,-439.9 290.86,-441.46 300.31,-443.12 309.47,-444.87"/>
<text text-anchor="middle" x="195" y="-474.45" font-family="sans-serif" font-size="16.00">CatalogProductosContext</text>
</g>
<!-- GestionOrdenesContext -->
<g id="node2" class="node">
<title>GestionOrdenesContext</title>
<polygon fill="none" stroke="black" stroke-width="2" points="357.46,-322.56 360.34,-325.34 362.74,-328.13 364.67,-330.93 366.11,-333.71 367.06,-336.48 367.5,-339.22 367.44,-341.91 366.86,-344.55 365.77,-347.13 364.17,-349.65 362.06,-352.08 359.44,-354.43 356.32,-356.69 352.71,-358.84 348.62,-360.9 344.05,-362.84 339.03,-364.66 333.57,-366.37 327.69,-367.95 321.4,-369.41 314.72,-370.74 307.68,-371.95 300.3,-373.02 292.61,-373.97 284.62,-374.79 276.37,-375.49 267.89,-376.06 259.19,-376.51 250.32,-376.84 241.3,-377.05 232.16,-377.15 222.93,-377.14 213.65,-377.02 204.33,-376.8 195.02,-376.47 185.73,-376.06 176.51,-375.55 167.38,-374.96 158.37,-374.28 149.5,-373.52 140.8,-372.69 132.29,-371.78 124.01,-370.81 115.98,-369.77 108.21,-368.66 100.73,-367.5 93.55,-366.27 86.7,-364.99 80.19,-363.66 74.03,-362.27 68.25,-360.83 62.85,-359.34 57.84,-357.81 53.24,-356.23 49.05,-354.6 45.27,-352.93 41.92,-351.21 39,-349.45 36.51,-347.65 34.44,-345.8 32.81,-343.92 31.62,-342 30.85,-340.05 30.51,-338.06 30.59,-336.03 31.09,-333.98 32.01,-331.9 33.33,-329.8 35.06,-327.68 37.18,-325.54 39.68,-323.39 42.57,-321.23 45.82,-319.07 49.43,-316.91 53.39,-314.76 57.69,-312.63 62.31,-310.52 67.26,-308.44 72.51,-306.4 78.05,-304.4 83.88,-302.46 89.97,-300.57 96.32,-298.75 102.92,-297 109.74,-295.34 116.78,-293.77 124.02,-292.3 131.45,-290.94 139.05,-289.69 146.8,-288.57 154.7,-287.57 162.72,-286.71 170.84,-285.99 179.06,-285.41 187.34,-284.99 195.68,-284.72 204.05,-284.61 212.44,-284.67 220.81,-284.89 229.17,-285.27 237.47,-285.82 245.71,-286.53 253.86,-287.41 261.89,-288.46 269.8,-289.66 277.54,-291.01 285.11,-292.52 292.48,-294.18 299.63,-295.97 306.53,-297.9 313.16,-299.95 319.51,-302.12 325.54,-304.4 331.25,-306.78 336.6,-309.24 341.59,-311.79 346.18,-314.41 350.37,-317.08 354.14,-319.8 357.46,-322.56"/>
<text text-anchor="middle" x="195" y="-329.69" font-family="sans-serif" font-size="16.00">GestionOrdenesContext</text>
</g>
<!-- CatalogProductosContext&#45;&gt;GestionOrdenesContext -->
<g id="edge1" class="edge">
<title>CatalogProductosContext&#45;&gt;GestionOrdenesContext</title>
<path fill="none" stroke="black" stroke-width="2" d="M195,-431.69C195,-414.06 195,-394.01 195,-376.72"/>
<text text-anchor="middle" x="270.5" y="-403.58" font-family="sans-serif" font-size="12.00"> &#160;&#160;&#160;&#160;&#160;&#160;&#160;&#160;&#160;&#160;&#160;&#160;&#160;&#160;&#160;&#160;&#160;&#160;&#160;&#160;&#160;&#160;&#160;&#160;&#160;&#160;&#160;&#160;&#160;&#160;&#160;&#160;&#160;&#160;&#160;&#160;&#160;&#160;&#160;</text>
<polygon fill="white" stroke="transparent" points="188,-367.72 188,-384.72 202,-384.72 202,-367.72 188,-367.72"/>
<text text-anchor="start" x="190" y="-373.12" font-family="sans-serif" font-size="12.00">D</text>
<polygon fill="white" stroke="transparent" points="171,-421.69 171,-440.69 187,-440.69 187,-421.69 171,-421.69"/>
<polyline fill="none" stroke="black" points="187,-421.69 187,-440.69 "/>
<text text-anchor="start" x="174" y="-428.09" font-family="sans-serif" font-size="12.00">U</text>
<polygon fill="white" stroke="transparent" points="187,-421.69 187,-440.69 220,-440.69 220,-421.69 187,-421.69"/>
<polygon fill="none" stroke="black" points="187,-421.69 187,-440.69 220,-440.69 220,-421.69 187,-421.69"/>
<text text-anchor="start" x="190" y="-428.09" font-family="sans-serif" font-size="12.00">OHS</text>
</g>
<!-- GestionClientesContext -->
<g id="node3" class="node">
<title>GestionClientesContext</title>
<polygon fill="none" stroke="black" stroke-width="2" points="616.93,-233.32 606.1,-233.43 595.32,-233.42 584.63,-233.28 574.1,-233.03 563.74,-232.65 553.62,-232.15 543.75,-231.53 534.19,-230.79 524.96,-229.93 516.11,-228.96 507.65,-227.87 499.62,-226.68 492.04,-225.37 484.94,-223.97 478.33,-222.46 472.23,-220.86 466.65,-219.17 461.62,-217.39 457.12,-215.53 453.17,-213.6 449.77,-211.6 446.92,-209.53 444.61,-207.4 442.85,-205.22 441.61,-203 440.9,-200.73 440.7,-198.44 440.99,-196.12 441.76,-193.78 442.99,-191.43 444.66,-189.07 446.76,-186.71 449.26,-184.37 452.15,-182.04 455.4,-179.73 458.99,-177.45 462.9,-175.21 467.12,-173.01 471.61,-170.86 476.36,-168.76 481.35,-166.73 486.57,-164.76 491.99,-162.86 497.6,-161.05 503.38,-159.31 509.32,-157.66 515.4,-156.1 521.62,-154.64 527.97,-153.27 534.42,-152.01 540.98,-150.86 547.64,-149.81 554.38,-148.88 561.21,-148.05 568.11,-147.35 575.09,-146.76 582.13,-146.29 589.24,-145.94 596.4,-145.7 603.61,-145.59 610.88,-145.6 618.18,-145.72 625.53,-145.96 632.9,-146.32 640.3,-146.8 647.71,-147.39 655.13,-148.09 662.55,-148.9 669.95,-149.81 677.32,-150.83 684.65,-151.96 691.92,-153.18 699.12,-154.49 706.22,-155.9 713.21,-157.39 720.07,-158.97 726.77,-160.62 733.3,-162.35 739.62,-164.15 745.72,-166.01 751.56,-167.94 757.12,-169.92 762.38,-171.95 767.31,-174.02 771.89,-176.14 776.07,-178.29 779.85,-180.47 783.19,-182.67 786.08,-184.89 788.48,-187.13 790.38,-189.37 791.75,-191.61 792.58,-193.85 792.86,-196.07 792.57,-198.29 791.69,-200.47 790.22,-202.64 788.16,-204.77 785.49,-206.86 782.22,-208.91 778.36,-210.9 773.9,-212.85 768.87,-214.73 763.26,-216.55 757.09,-218.3 750.39,-219.98 743.18,-221.57 735.47,-223.08 727.3,-224.51 718.7,-225.84 709.7,-227.07 700.33,-228.21 690.63,-229.24 680.64,-230.16 670.4,-230.97 659.95,-231.68 649.33,-232.26 638.59,-232.73 627.78,-233.09 616.93,-233.32"/>
<text text-anchor="middle" x="613" y="-185.57" font-family="sans-serif" font-size="16.00">GestionClientesContext</text>
</g>
<!-- GestionOrdenesContext&#45;&gt;GestionClientesContext -->
<g id="edge2" class="edge">
<title>GestionOrdenesContext&#45;&gt;GestionClientesContext</title>
<path fill="none" stroke="black" stroke-width="2" d="M301.29,-296.35C363.33,-275.26 441.44,-248.7 503.95,-227.44"/>
<text text-anchor="middle" x="450.5" y="-257.2" font-family="sans-serif" font-size="12.00">Partnership</text>
</g>
<!-- GestionPagosContext -->
<g id="node5" class="node">
<title>GestionPagosContext</title>
<polygon fill="none" stroke="black" stroke-width="2" points="258.21,-229.34 249.15,-230.56 239.97,-231.66 230.71,-232.64 221.4,-233.49 212.09,-234.21 202.8,-234.8 193.57,-235.25 184.43,-235.56 175.42,-235.72 166.57,-235.74 157.9,-235.62 149.45,-235.35 141.23,-234.94 133.28,-234.38 125.61,-233.68 118.25,-232.84 111.21,-231.86 104.5,-230.75 98.15,-229.51 92.16,-228.14 86.54,-226.65 81.3,-225.04 76.44,-223.33 71.97,-221.51 67.89,-219.59 64.21,-217.59 60.91,-215.5 57.99,-213.34 55.46,-211.11 53.3,-208.82 51.51,-206.48 50.09,-204.1 49.02,-201.69 48.3,-199.25 47.92,-196.79 47.87,-194.33 48.14,-191.87 48.73,-189.41 49.62,-186.97 50.8,-184.55 52.27,-182.17 54.02,-179.82 56.05,-177.52 58.34,-175.27 60.88,-173.08 63.69,-170.95 66.74,-168.89 70.03,-166.9 73.56,-164.99 77.33,-163.17 81.34,-161.43 85.57,-159.78 90.03,-158.22 94.71,-156.77 99.62,-155.4 104.75,-154.14 110.09,-152.98 115.65,-151.92 121.42,-150.97 127.4,-150.12 133.58,-149.38 139.96,-148.74 146.53,-148.2 153.29,-147.77 160.22,-147.44 167.33,-147.22 174.59,-147.09 181.99,-147.07 189.53,-147.15 197.19,-147.32 204.94,-147.6 212.79,-147.97 220.69,-148.43 228.65,-148.99 236.62,-149.64 244.6,-150.38 252.55,-151.21 260.45,-152.12 268.28,-153.12 276,-154.21 283.59,-155.37 291.01,-156.61 298.25,-157.94 305.27,-159.33 312.03,-160.81 318.52,-162.35 324.7,-163.96 330.54,-165.64 336.02,-167.38 341.1,-169.18 345.77,-171.05 349.99,-172.96 353.75,-174.93 357.01,-176.95 359.78,-179.01 362.01,-181.11 363.71,-183.25 364.86,-185.42 365.44,-187.62 365.45,-189.84 364.89,-192.07 363.75,-194.32 362.03,-196.57 359.75,-198.82 356.89,-201.06 353.48,-203.29 349.52,-205.51 345.03,-207.69 340.02,-209.84 334.52,-211.95 328.55,-214.02 322.13,-216.03 315.29,-217.97 308.06,-219.86 300.46,-221.66 292.54,-223.39 284.31,-225.02 275.83,-226.56 267.11,-228 258.21,-229.34"/>
<text text-anchor="middle" x="195" y="-185.57" font-family="sans-serif" font-size="16.00">GestionPagosContext</text>
</g>
<!-- GestionOrdenesContext&#45;&gt;GestionPagosContext -->
<g id="edge3" class="edge">
<title>GestionOrdenesContext&#45;&gt;GestionPagosContext</title>
<path fill="none" stroke="black" stroke-width="2" d="M195,-284.77C195,-268.8 195,-251.07 195,-235.32"/>
<text text-anchor="middle" x="229.5" y="-257.2" font-family="sans-serif" font-size="12.00">Partnership</text>
</g>
<!-- GestionEnviosContext -->
<g id="node4" class="node">
<title>GestionEnviosContext</title>
<polygon fill="none" stroke="black" stroke-width="2" points="457.03,-41.12 458.25,-38.28 459.88,-35.46 461.94,-32.69 464.41,-29.98 467.29,-27.33 470.56,-24.77 474.21,-22.29 478.25,-19.9 482.65,-17.63 487.4,-15.47 492.49,-13.43 497.91,-11.52 503.64,-9.74 509.66,-8.1 515.97,-6.61 522.53,-5.27 529.34,-4.08 536.37,-3.04 543.61,-2.15 551.03,-1.42 558.62,-0.85 566.36,-0.43 574.22,-0.16 582.18,-0.04 590.23,-0.06 598.34,-0.23 606.48,-0.53 614.65,-0.97 622.8,-1.54 630.94,-2.23 639.02,-3.03 647.03,-3.95 654.95,-4.97 662.76,-6.09 670.44,-7.3 677.96,-8.59 685.31,-9.96 692.46,-11.41 699.4,-12.92 706.1,-14.49 712.56,-16.11 718.74,-17.78 724.64,-19.49 730.24,-21.24 735.53,-23.02 740.48,-24.83 745.09,-26.66 749.34,-28.52 753.22,-30.39 756.72,-32.27 759.83,-34.16 762.54,-36.07 764.84,-37.97 766.73,-39.89 768.21,-41.8 769.25,-43.71 769.87,-45.63 770.07,-47.54 769.83,-49.45 769.16,-51.35 768.06,-53.24 766.54,-55.13 764.59,-57.01 762.23,-58.88 759.45,-60.74 756.27,-62.59 752.69,-64.42 748.73,-66.23 744.39,-68.02 739.69,-69.78 734.63,-71.52 729.24,-73.23 723.53,-74.91 717.5,-76.54 711.19,-78.13 704.6,-79.68 697.75,-81.17 690.67,-82.61 683.37,-83.98 675.88,-85.28 668.21,-86.5 660.38,-87.65 652.42,-88.71 644.35,-89.67 636.19,-90.53 627.97,-91.29 619.71,-91.94 611.42,-92.47 603.14,-92.87 594.89,-93.15 586.68,-93.3 578.56,-93.31 570.52,-93.17 562.61,-92.9 554.83,-92.48 547.22,-91.91 539.79,-91.18 532.57,-90.31 525.57,-89.29 518.82,-88.12 512.33,-86.79 506.11,-85.33 500.2,-83.72 494.6,-81.97 489.33,-80.08 484.4,-78.07 479.83,-75.94 475.63,-73.69 471.81,-71.33 468.38,-68.88 465.35,-66.33 462.73,-63.71 460.53,-61.01 458.74,-58.26 457.38,-55.46 456.45,-52.62 455.95,-49.75 455.88,-46.87 456.24,-43.99 457.03,-41.12"/>
<text text-anchor="middle" x="613" y="-43.16" font-family="sans-serif" font-size="16.00">GestionEnviosContext</text>
</g>
<!-- GestionClientesContext&#45;&gt;GestionEnviosContext -->
<g id="edge4" class="edge">
<title>GestionClientesContext&#45;&gt;GestionEnviosContext</title>
<path fill="none" stroke="black" stroke-width="2" d="M613,-145.48C613,-128.7 613,-109.46 613,-92.53"/>
<text text-anchor="middle" x="647.5" y="-115.33" font-family="sans-serif" font-size="12.00">Partnership</text>
</g>
<!-- GestionAutorizacionAutencticacionContext -->
<g id="node6" class="node">
<title>GestionAutorizacionAutencticacionContext</title>
<polygon fill="none" stroke="black" stroke-width="2" points="386.75,-334.54 386.06,-331.66 386.13,-328.8 386.97,-325.97 388.58,-323.17 390.96,-320.43 394.11,-317.74 398.01,-315.12 402.66,-312.59 408.05,-310.14 414.16,-307.79 420.99,-305.55 428.5,-303.41 436.69,-301.4 445.52,-299.52 454.98,-297.77 465.05,-296.15 475.68,-294.67 486.85,-293.33 498.53,-292.14 510.69,-291.09 523.28,-290.19 536.28,-289.43 549.65,-288.82 563.34,-288.35 577.32,-288.03 591.55,-287.84 605.98,-287.78 620.56,-287.86 635.27,-288.06 650.05,-288.39 664.87,-288.83 679.66,-289.39 694.41,-290.06 709.05,-290.82 723.55,-291.68 737.87,-292.64 751.96,-293.67 765.79,-294.79 779.31,-295.98 792.48,-297.24 805.27,-298.57 817.65,-299.95 829.57,-301.39 841,-302.88 851.92,-304.41 862.29,-305.99 872.08,-307.6 881.28,-309.25 889.85,-310.94 897.78,-312.65 905.04,-314.39 911.61,-316.15 917.49,-317.94 922.65,-319.75 927.08,-321.59 930.78,-323.44 933.75,-325.3 935.96,-327.19 937.42,-329.09 938.14,-331 938.1,-332.93 937.32,-334.87 935.79,-336.82 933.54,-338.77 930.55,-340.74 926.85,-342.7 922.45,-344.67 917.36,-346.64 911.6,-348.6 905.18,-350.56 898.13,-352.5 890.46,-354.43 882.19,-356.34 873.36,-358.22 863.97,-360.08 854.07,-361.9 843.67,-363.68 832.8,-365.41 821.49,-367.08 809.77,-368.7 797.68,-370.25 785.23,-371.73 772.47,-373.12 759.42,-374.43 746.13,-375.64 732.61,-376.76 718.91,-377.76 705.07,-378.64 691.11,-379.41 677.07,-380.05 662.99,-380.55 648.9,-380.91 634.84,-381.14 620.84,-381.21 606.94,-381.13 593.18,-380.9 579.59,-380.51 566.2,-379.96 553.05,-379.25 540.18,-378.39 527.62,-377.36 515.41,-376.18 503.56,-374.84 492.13,-373.36 481.13,-371.72 470.61,-369.94 460.58,-368.03 451.08,-365.98 442.14,-363.82 433.77,-361.54 426.01,-359.15 418.88,-356.66 412.41,-354.09 406.6,-351.44 401.48,-348.72 397.07,-345.95 393.38,-343.13 390.42,-340.28 388.21,-337.41 386.75,-334.54"/>
<text text-anchor="middle" x="663" y="-329.69" font-family="sans-serif" font-size="16.00">GestionAutorizacionAutencticacionContext</text>
</g>
<!-- GestionAutorizacionAutencticacionContext&#45;&gt;GestionClientesContext -->
<g id="edge5" class="edge">
<title>GestionAutorizacionAutencticacionContext&#45;&gt;GestionClientesContext</title>
<path fill="none" stroke="black" stroke-width="2" d="M647.46,-288.3C641.32,-270.86 634.3,-250.89 628.2,-233.55"/>
<text text-anchor="middle" x="714.5" y="-257.2" font-family="sans-serif" font-size="12.00"> &#160;&#160;&#160;&#160;&#160;&#160;&#160;&#160;&#160;&#160;&#160;&#160;&#160;&#160;&#160;&#160;&#160;&#160;&#160;&#160;&#160;&#160;&#160;&#160;&#160;&#160;&#160;&#160;&#160;&#160;&#160;&#160;&#160;&#160;&#160;&#160;&#160;&#160;&#160;</text>
<polygon fill="white" stroke="transparent" points="609.2,-223.55 609.2,-242.55 625.2,-242.55 625.2,-223.55 609.2,-223.55"/>
<polyline fill="none" stroke="black" points="625.2,-223.55 625.2,-242.55 "/>
<text text-anchor="start" x="612.2" y="-229.95" font-family="sans-serif" font-size="12.00">D</text>
<polygon fill="white" stroke="transparent" points="625.2,-223.55 625.2,-242.55 647.2,-242.55 647.2,-223.55 625.2,-223.55"/>
<polygon fill="none" stroke="black" points="625.2,-223.55 625.2,-242.55 647.2,-242.55 647.2,-223.55 625.2,-223.55"/>
<text text-anchor="start" x="628.2" y="-229.95" font-family="sans-serif" font-size="12.00">CF</text>
<polygon fill="white" stroke="transparent" points="629.46,-278.3 629.46,-297.3 645.46,-297.3 645.46,-278.3 629.46,-278.3"/>
<polyline fill="none" stroke="black" points="645.46,-278.3 645.46,-297.3 "/>
<text text-anchor="start" x="632.46" y="-284.7" font-family="sans-serif" font-size="12.00">U</text>
<polygon fill="white" stroke="transparent" points="645.46,-278.3 645.46,-297.3 666.46,-297.3 666.46,-278.3 645.46,-278.3"/>
<polygon fill="none" stroke="black" points="645.46,-278.3 645.46,-297.3 666.46,-297.3 666.46,-278.3 645.46,-278.3"/>
<text text-anchor="start" x="648.46" y="-284.7" font-family="sans-serif" font-size="12.00">PL</text>
</g>
</g>
</svg>
